<?xml version="1.0" encoding="UTF-8" standalone="no"?>
<!-- Created with Inkscape (http://www.inkscape.org/) -->

<svg
   xmlns:dc="http://purl.org/dc/elements/1.1/"
   xmlns:cc="http://creativecommons.org/ns#"
   xmlns:rdf="http://www.w3.org/1999/02/22-rdf-syntax-ns#"
   xmlns:svg="http://www.w3.org/2000/svg"
   xmlns="http://www.w3.org/2000/svg"
   xmlns:sodipodi="http://sodipodi.sourceforge.net/DTD/sodipodi-0.dtd"
   xmlns:inkscape="http://www.inkscape.org/namespaces/inkscape"
   width="50"
   height="80"
   viewBox="0 0 13.229166 21.166667"
   version="1.1"
   id="svg1625"
   inkscape:version="0.92.3 (2405546, 2018-03-11)"
   sodipodi:docname="top-ant-source.svg"
   inkscape:export-filename="D:\1stuff\dev\2021\ld48\assets\images\ant-top.png"
   inkscape:export-xdpi="400"
   inkscape:export-ydpi="400">
  <defs
     id="defs1619" />
  <sodipodi:namedview
     id="base"
     pagecolor="#ffffff"
     bordercolor="#666666"
     borderopacity="1.0"
     inkscape:pageopacity="0.0"
     inkscape:pageshadow="2"
     inkscape:zoom="3.959798"
     inkscape:cx="1.46855"
     inkscape:cy="32.911971"
     inkscape:document-units="mm"
     inkscape:current-layer="layer1"
     showgrid="false"
     inkscape:snap-nodes="false"
     units="px"
     fit-margin-top="0"
     fit-margin-left="0"
     fit-margin-right="0"
     fit-margin-bottom="0"
     inkscape:window-width="1689"
     inkscape:window-height="1057"
     inkscape:window-x="223"
     inkscape:window-y="-8"
     inkscape:window-maximized="1" />
  <metadata
     id="metadata1622">
    <rdf:RDF>
      <cc:Work
         rdf:about="">
        <dc:format>image/svg+xml</dc:format>
        <dc:type
           rdf:resource="http://purl.org/dc/dcmitype/StillImage" />
        <dc:title></dc:title>
      </cc:Work>
    </rdf:RDF>
  </metadata>
  <g
     inkscape:label="Layer 1"
     inkscape:groupmode="layer"
     id="layer1"
     transform="translate(-104.04292,-206.2323)">
    <g
       id="g2410"
       transform="translate(0.63096333,-0.41640638)">
      <path
         inkscape:connector-curvature="0"
         id="path4622-0-9-9-3-8"
         d="m 111.68662,219.84854 c 0,0 3.21996,2.29996 4.09394,-0.18399"
         style="fill:none;stroke:#000000;stroke-width:0.48679519;stroke-linecap:butt;stroke-linejoin:miter;stroke-miterlimit:4;stroke-dasharray:none;stroke-opacity:1" />
      <path
         inkscape:connector-curvature="0"
         id="path4622-0-9-9-3"
         d="m 108.36646,219.85209 c 0,0 -3.21996,2.29996 -4.09394,-0.18399"
         style="fill:none;stroke:#000000;stroke-width:0.48679516;stroke-linecap:butt;stroke-linejoin:miter;stroke-miterlimit:4;stroke-dasharray:none;stroke-opacity:1" />
      <path
         sodipodi:nodetypes="cccc"
         inkscape:connector-curvature="0"
         id="path4591-2-8"
         d="m 109.8543,219.12304 c -2.7541,0.30578 -4.15242,2.5059 -2.96217,5.02747 1.42649,2.28533 2.77066,5.52772 5.72,0.66644 1.45012,-3.51196 0.18911,-5.3109 -2.75783,-5.69391 z"
         style="fill:#ff0505;fill-opacity:1;stroke:#000000;stroke-width:0.11013792px;stroke-linecap:butt;stroke-linejoin:miter;stroke-opacity:1" />
      <path
         inkscape:connector-curvature="0"
         id="path4591-4-7"
         d="m 111.70396,217.55618 c 0,0 -1.60619,-1.59749 -2.66482,-1.09827 -1.05862,0.49921 -1.97123,3.7441 -0.14601,3.39465 1.82521,-0.34945 3.10285,0.54914 3.13936,-0.49921 0.0365,-1.04835 -0.32853,-1.79717 -0.32853,-1.79717 z"
         style="fill:#ff0505;fill-opacity:1;stroke:#000000;stroke-width:0.05976449px;stroke-linecap:butt;stroke-linejoin:miter;stroke-opacity:1" />
      <path
         inkscape:connector-curvature="0"
         id="path4591-0"
         d="m 112.15909,214.73975 c 0,0 -1.98774,-1.97696 -3.29783,-1.35916 -1.31009,0.6178 -2.43949,4.63351 -0.1807,4.20105 2.25878,-0.43246 3.83993,0.67958 3.88511,-0.6178 0.0452,-1.29738 -0.40658,-2.22409 -0.40658,-2.22409 z"
         style="fill:#ff0505;fill-opacity:1;stroke:#000000;stroke-width:0.07396131px;stroke-linecap:butt;stroke-linejoin:miter;stroke-opacity:1" />
      <path
         inkscape:connector-curvature="0"
         id="path4622-0-9"
         d="m 108.64957,214.59715 c 0,0 -3.21995,2.29996 -4.09393,-0.18399"
         style="fill:none;stroke:#000000;stroke-width:0.4867951;stroke-linecap:butt;stroke-linejoin:miter;stroke-miterlimit:4;stroke-dasharray:none;stroke-opacity:1" />
      <path
         inkscape:connector-curvature="0"
         id="path4622-0-9-9"
         d="m 108.44361,217.46523 c 0,0 -3.21995,2.29996 -4.09393,-0.18399"
         style="fill:none;stroke:#000000;stroke-width:0.48679513;stroke-linecap:butt;stroke-linejoin:miter;stroke-miterlimit:4;stroke-dasharray:none;stroke-opacity:1" />
      <path
         sodipodi:nodetypes="cczzzccc"
         inkscape:connector-curvature="0"
         id="path2251"
         d="m 108.13022,214.55431 c 0,0 -2.24138,-2.54602 -1.30593,-3.74874 0.93544,-1.20271 1.47446,-3.61752 1.88759,-3.60813 0.41313,0.009 1.29061,0.0195 1.90429,0.0334 0.61368,0.0139 0.68489,0.28398 2.13816,2.53907 1.45327,2.25509 0.17927,3.67556 -0.59524,4.96984 -1.64314,0.008 -4.02887,-0.18544 -4.02887,-0.18544 z"
         style="fill:#ff0505;fill-opacity:1;stroke:#000000;stroke-width:0.26458332px;stroke-linecap:butt;stroke-linejoin:miter;stroke-opacity:1" />
      <path
         sodipodi:nodetypes="cccc"
         inkscape:connector-curvature="0"
         id="path4618-9-8"
         d="m 110.04848,210.7807 c 0,0 -0.0981,-1.30764 -1.0099,-1.38191 -0.9118,-0.0743 -1.201,1.37256 -1.201,1.37256 z"
         style="fill:#ffffff;fill-opacity:1;stroke:#000000;stroke-width:0.16092697px;stroke-linecap:butt;stroke-linejoin:miter;stroke-opacity:1" />
      <path
         sodipodi:nodetypes="sscs"
         inkscape:connector-curvature="0"
         id="path4620-4-5"
         d="m 108.51104,209.57584 c 0.0686,-0.18551 0.1789,-0.47163 0.4879,-0.16264 0.309,0.30901 -0.13011,0.73185 -0.13011,0.73185 0,0 -0.57084,0.007 -0.35779,-0.56921 z"
         style="fill:#3050cd;fill-opacity:1;stroke:#000000;stroke-width:0.12879786px;stroke-linecap:butt;stroke-linejoin:miter;stroke-opacity:1" />
      <path
         sodipodi:nodetypes="cccc"
         inkscape:connector-curvature="0"
         id="path4618-9-8-0"
         d="m 112.25938,210.79005 c 0,0 -0.0981,-1.30764 -1.0099,-1.38191 -0.9118,-0.0743 -1.201,1.37256 -1.201,1.37256 z"
         style="fill:#ffffff;fill-opacity:1;stroke:#000000;stroke-width:0.16092697px;stroke-linecap:butt;stroke-linejoin:miter;stroke-opacity:1" />
      <path
         sodipodi:nodetypes="sscs"
         inkscape:connector-curvature="0"
         id="path4620-4-5-7"
         d="m 110.84977,209.55222 c 0.0686,-0.18551 0.1789,-0.47163 0.4879,-0.16264 0.309,0.30901 -0.13011,0.73185 -0.13011,0.73185 0,0 -0.57084,0.007 -0.35779,-0.56921 z"
         style="fill:#3050cd;fill-opacity:1;stroke:#000000;stroke-width:0.12879786px;stroke-linecap:butt;stroke-linejoin:miter;stroke-opacity:1" />
      <path
         inkscape:connector-curvature="0"
         id="path4622-6-5"
         d="m 106.29268,208.66469 c 0,0 0.0916,3.95594 2.60324,3.165"
         style="fill:none;stroke:#a20000;stroke-width:0.4867951;stroke-linecap:butt;stroke-linejoin:miter;stroke-miterlimit:4;stroke-dasharray:none;stroke-opacity:1" />
      <path
         inkscape:connector-curvature="0"
         id="path4622-6-9-5"
         d="m 113.83943,208.33481 c 0,0 0.49145,3.92636 -2.10922,3.51358"
         style="fill:none;stroke:#a20000;stroke-width:0.4867951;stroke-linecap:butt;stroke-linejoin:miter;stroke-miterlimit:4;stroke-dasharray:none;stroke-opacity:1" />
      <path
         inkscape:connector-curvature="0"
         id="path4622-0-9-1"
         d="m 111.59249,214.87708 c 0,0 3.21995,2.29996 4.09393,-0.18399"
         style="fill:none;stroke:#000000;stroke-width:0.48679513;stroke-linecap:butt;stroke-linejoin:miter;stroke-miterlimit:4;stroke-dasharray:none;stroke-opacity:1" />
      <path
         inkscape:connector-curvature="0"
         id="path4622-0-9-9-37"
         d="m 111.51497,217.55618 c 0,0 3.21995,2.29996 4.09393,-0.18399"
         style="fill:none;stroke:#000000;stroke-width:0.48679516;stroke-linecap:butt;stroke-linejoin:miter;stroke-miterlimit:4;stroke-dasharray:none;stroke-opacity:1" />
    </g>
  </g>
</svg>
