<?xml version="1.0" encoding="UTF-8" standalone="no"?>
<!-- Created with Inkscape (http://www.inkscape.org/) -->

<svg
   xmlns:dc="http://purl.org/dc/elements/1.1/"
   xmlns:cc="http://creativecommons.org/ns#"
   xmlns:rdf="http://www.w3.org/1999/02/22-rdf-syntax-ns#"
   xmlns:svg="http://www.w3.org/2000/svg"
   xmlns="http://www.w3.org/2000/svg"
   xmlns:xlink="http://www.w3.org/1999/xlink"
   xmlns:sodipodi="http://sodipodi.sourceforge.net/DTD/sodipodi-0.dtd"
   xmlns:inkscape="http://www.inkscape.org/namespaces/inkscape"
   width="98.771744"
   height="61.646515"
   viewBox="0 0 26.133358 16.31064"
   version="1.1"
   id="svg899"
   inkscape:version="0.92.3 (2405546, 2018-03-11)"
   sodipodi:docname="fly-source.svg"
   inkscape:export-filename="D:\1stuff\dev\2021\ld48\assets\images\fly.png"
   inkscape:export-xdpi="400"
   inkscape:export-ydpi="400">
  <defs
     id="defs893">
    <linearGradient
       inkscape:collect="always"
       id="linearGradient1510">
      <stop
         style="stop-color:#cacaca;stop-opacity:1;"
         offset="0"
         id="stop1506" />
      <stop
         style="stop-color:#cacaca;stop-opacity:0;"
         offset="1"
         id="stop1508" />
    </linearGradient>
    <linearGradient
       inkscape:collect="always"
       xlink:href="#linearGradient1510"
       id="linearGradient1512"
       x1="184.42542"
       y1="113.69759"
       x2="200.65877"
       y2="113.69759"
       gradientUnits="userSpaceOnUse"
       gradientTransform="rotate(-16.566112,187.89932,120.63796)" />
    <linearGradient
       gradientTransform="rotate(9.7130148,190.99196,120.31771)"
       inkscape:collect="always"
       xlink:href="#linearGradient1510"
       id="linearGradient1512-0"
       x1="184.42542"
       y1="113.69759"
       x2="200.65877"
       y2="113.69759"
       gradientUnits="userSpaceOnUse" />
  </defs>
  <sodipodi:namedview
     id="base"
     pagecolor="#ffffff"
     bordercolor="#666666"
     borderopacity="1.0"
     inkscape:pageopacity="0.0"
     inkscape:pageshadow="2"
     inkscape:zoom="1.979899"
     inkscape:cx="31.871281"
     inkscape:cy="132.24326"
     inkscape:document-units="mm"
     inkscape:current-layer="layer1"
     showgrid="false"
     fit-margin-top="0"
     fit-margin-left="0"
     fit-margin-right="0"
     fit-margin-bottom="0"
     units="px"
     inkscape:window-width="1689"
     inkscape:window-height="1057"
     inkscape:window-x="223"
     inkscape:window-y="-8"
     inkscape:window-maximized="1" />
  <metadata
     id="metadata896">
    <rdf:RDF>
      <cc:Work
         rdf:about="">
        <dc:format>image/svg+xml</dc:format>
        <dc:type
           rdf:resource="http://purl.org/dc/dcmitype/StillImage" />
        <dc:title></dc:title>
      </cc:Work>
    </rdf:RDF>
  </metadata>
  <g
     inkscape:label="Layer 1"
     inkscape:groupmode="layer"
     id="layer1"
     transform="translate(-175.1514,-107.61021)">
    <path
       style="fill:url(#linearGradient1512);fill-opacity:1;stroke:#000000;stroke-width:0.26458332px;stroke-linecap:butt;stroke-linejoin:miter;stroke-opacity:1"
       d="m 184.05947,119.15608 c 0,0 2.84497,-12.9724 7.69229,-11.25956 4.84731,1.71283 9.08526,4.69138 5.87627,6.82899 -3.20899,2.13761 -13.56856,4.43057 -13.56856,4.43057 z"
       id="path1504"
       inkscape:connector-curvature="0" />
    <path
       style="fill:#868686;fill-opacity:1;stroke:#000000;stroke-width:0.26458332px;stroke-linecap:butt;stroke-linejoin:miter;stroke-opacity:1"
       d="m 183.12946,115.57143 c -3.49628,2.26785 -9.4494,4.34672 -3.59077,5.57515 5.85863,1.22842 16.34747,-0.75596 16.34747,-0.75596 0,0 3.1183,-3.02381 -3.2128,-3.59077 -6.3311,-0.56696 -9.5439,-1.22842 -9.5439,-1.22842 z"
       id="path1514"
       inkscape:connector-curvature="0" />
    <path
       style="fill:url(#linearGradient1512-0);fill-opacity:1;stroke:#000000;stroke-width:0.26458332px;stroke-linecap:butt;stroke-linejoin:miter;stroke-opacity:1"
       d="m 185.10272,117.0828 c 0,0 8.29439,-10.37208 11.88238,-6.69015 3.58798,3.68193 6.0692,8.22897 2.24545,8.72489 -3.82375,0.49592 -14.12783,-2.03474 -14.12783,-2.03474 z"
       id="path1504-1"
       inkscape:connector-curvature="0" />
    <g
       id="g1570"
       transform="matrix(1,0,0,0.64843065,-0.72090333,42.69322)">
      <path
         inkscape:connector-curvature="0"
         id="path1524"
         d="m 182.94047,111.69717 c 0,0 -8.40997,-0.18899 -6.70907,2.74033 1.70089,2.92931 6.42559,6.52009 8.40997,3.68527 1.98437,-2.83483 1.79538,-4.53572 0,-5.57515 -1.79539,-1.03944 -1.7009,-0.85045 -1.7009,-0.85045 z"
         style="fill:#e9fa0c;fill-opacity:1;stroke:#000000;stroke-width:0.26458332px;stroke-linecap:butt;stroke-linejoin:miter;stroke-opacity:1" />
      <path
         sodipodi:nodetypes="csc"
         inkscape:connector-curvature="0"
         id="path1526"
         d="m 176.51488,114.81548 c 0,0 1.51189,-0.75597 3.87425,-1.32292 3.05992,-0.73437 5.76414,1.41741 5.76414,1.41741"
         style="fill:none;stroke:#000000;stroke-width:0.26458332px;stroke-linecap:butt;stroke-linejoin:miter;stroke-opacity:1" />
      <path
         sodipodi:nodetypes="csc"
         inkscape:connector-curvature="0"
         id="path1526-5"
         d="m 178.63178,117.27176 c 0,0 -0.23863,-0.80608 2.12373,-1.37303 3.05992,-0.73437 4.55403,1.20507 4.55403,1.20507"
         style="fill:none;stroke:#000000;stroke-width:0.26458332px;stroke-linecap:butt;stroke-linejoin:miter;stroke-opacity:1" />
    </g>
    <path
       style="fill:none;stroke:#000000;stroke-width:0.26458332px;stroke-linecap:butt;stroke-linejoin:miter;stroke-opacity:1"
       d="m 182.47827,120.86938 c 0,0 1.50339,1.9377 -0.0668,2.93996"
       id="path1572"
       inkscape:connector-curvature="0" />
    <path
       style="fill:none;stroke:#000000;stroke-width:0.26458332px;stroke-linecap:butt;stroke-linejoin:miter;stroke-opacity:1"
       d="m 188.6045,120.5869 c 0,0 1.50339,1.9377 -0.0668,2.93996"
       id="path1572-8"
       inkscape:connector-curvature="0" />
    <path
       style="fill:none;stroke:#000000;stroke-width:0.26458332px;stroke-linecap:butt;stroke-linejoin:miter;stroke-opacity:1"
       d="m 193.84967,120.15259 c 0,0 1.50339,1.9377 -0.0668,2.93996"
       id="path1572-9"
       inkscape:connector-curvature="0" />
  </g>
</svg>
