<?xml version="1.0" encoding="UTF-8" standalone="no"?>
<!-- Created with Inkscape (http://www.inkscape.org/) -->

<svg
   xmlns:dc="http://purl.org/dc/elements/1.1/"
   xmlns:cc="http://creativecommons.org/ns#"
   xmlns:rdf="http://www.w3.org/1999/02/22-rdf-syntax-ns#"
   xmlns:svg="http://www.w3.org/2000/svg"
   xmlns="http://www.w3.org/2000/svg"
   xmlns:sodipodi="http://sodipodi.sourceforge.net/DTD/sodipodi-0.dtd"
   xmlns:inkscape="http://www.inkscape.org/namespaces/inkscape"
   width="12.046078mm"
   height="14.98615mm"
   viewBox="0 0 12.046078 14.98615"
   version="1.1"
   id="svg5626"
   inkscape:version="0.92.3 (2405546, 2018-03-11)"
   sodipodi:docname="foundBobSource.svg"
   inkscape:export-filename="D:\1stuff\dev\2021\ld48\assets\images\foundBob.png"
   inkscape:export-xdpi="96"
   inkscape:export-ydpi="96">
  <defs
     id="defs5620" />
  <sodipodi:namedview
     id="base"
     pagecolor="#ffffff"
     bordercolor="#666666"
     borderopacity="1.0"
     inkscape:pageopacity="0.0"
     inkscape:pageshadow="2"
     inkscape:zoom="1.979899"
     inkscape:cx="19.619949"
     inkscape:cy="40.445873"
     inkscape:document-units="mm"
     inkscape:current-layer="layer1"
     showgrid="false"
     inkscape:snap-nodes="false"
     inkscape:window-width="1689"
     inkscape:window-height="1057"
     inkscape:window-x="223"
     inkscape:window-y="-8"
     inkscape:window-maximized="1"
     fit-margin-top="0"
     fit-margin-left="0"
     fit-margin-right="0"
     fit-margin-bottom="0" />
  <metadata
     id="metadata5623">
    <rdf:RDF>
      <cc:Work
         rdf:about="">
        <dc:format>image/svg+xml</dc:format>
        <dc:type
           rdf:resource="http://purl.org/dc/dcmitype/StillImage" />
        <dc:title></dc:title>
      </cc:Work>
    </rdf:RDF>
  </metadata>
  <g
     inkscape:label="Layer 1"
     inkscape:groupmode="layer"
     id="layer1"
     transform="translate(-125.18054,-133.99833)">
    <path
       style="fill:#ff0505;fill-opacity:1;stroke:#000000;stroke-width:0.11013792px;stroke-linecap:butt;stroke-linejoin:miter;stroke-opacity:1"
       d="m 130.06889,143.89811 c 0,0 2.95999,-2.94395 4.91089,-2.02396 1.95089,0.91998 3.63271,6.89988 0.26909,6.2559 -3.36363,-0.64399 -5.71816,1.01198 -5.78543,-0.91999 -0.0673,-1.93197 0.60545,-3.31195 0.60545,-3.31195 z"
       id="path4591-2"
       inkscape:connector-curvature="0" />
    <path
       style="fill:none;stroke:#8b8b8b;stroke-width:0.4867951;stroke-linecap:butt;stroke-linejoin:miter;stroke-miterlimit:4;stroke-dasharray:none;stroke-opacity:1"
       d="m 131.1326,142.62321 c 0,0 -2.29996,3.21994 0.18399,4.09392"
       id="path4622-0-8-1"
       inkscape:connector-curvature="0" />
    <path
       style="fill:#ff0505;fill-opacity:1;stroke:#000000;stroke-width:0.07396131px;stroke-linecap:butt;stroke-linejoin:miter;stroke-opacity:1"
       d="m 130.60343,142.09404 c 0,0 1.98773,-1.97697 3.29782,-1.35916 1.3101,0.6178 2.4395,4.6335 0.18071,4.20104 -2.25879,-0.43246 -3.83993,0.67958 -3.88511,-0.6178 -0.0452,-1.29738 0.40658,-2.22408 0.40658,-2.22408 z"
       id="path4591-4"
       inkscape:connector-curvature="0" />
    <path
       style="fill:none;stroke:#8b8b8b;stroke-width:0.4867951;stroke-linecap:butt;stroke-linejoin:miter;stroke-miterlimit:4;stroke-dasharray:none;stroke-opacity:1"
       d="m 128.60416,140.94205 c 0,0 2.29996,3.21994 -0.184,4.09392"
       id="path4622-0-8-15"
       inkscape:connector-curvature="0" />
    <path
       style="fill:#ff0505;fill-opacity:1;stroke:#000000;stroke-width:0.07396131px;stroke-linecap:butt;stroke-linejoin:miter;stroke-opacity:1"
       d="m 128.82658,139.64237 c 0,0 1.98774,-1.97696 3.29782,-1.35916 1.3101,0.6178 2.4395,4.63351 0.18071,4.20105 -2.25878,-0.43246 -3.83993,0.67957 -3.88511,-0.6178 -0.0452,-1.29739 0.40658,-2.22409 0.40658,-2.22409 z"
       id="path4591"
       inkscape:connector-curvature="0" />
    <path
       style="fill:#ff0505;fill-opacity:1;stroke:#000000;stroke-width:0.12879786px;stroke-linecap:butt;stroke-linejoin:miter;stroke-opacity:1"
       d="m 126.62668,139.18596 c -0.43137,-2.03027 3.50575,-4.02431 3.50575,-4.02431 0,0 3.31195,3.58794 1.01199,5.7039 -2.29996,2.11597 -4.08637,0.35068 -4.51774,-1.67959 z"
       id="path4589"
       inkscape:connector-curvature="0"
       sodipodi:nodetypes="zccz" />
    <path
       style="fill:#ffffff;fill-opacity:1;stroke:#000000;stroke-width:0.16092697px;stroke-linecap:butt;stroke-linejoin:miter;stroke-opacity:1"
       d="m 129.38915,138.88332 c 0,0 0.27989,-2.44157 -0.63192,-2.51584 -0.9118,-0.0743 -1.57897,2.50649 -1.57897,2.50649 z"
       id="path4618"
       inkscape:connector-curvature="0"
       sodipodi:nodetypes="cccc" />
    <path
       style="fill:#3050cd;fill-opacity:1;stroke:#000000;stroke-width:0.12879786px;stroke-linecap:butt;stroke-linejoin:miter;stroke-opacity:1"
       d="m 128.7466,137.83169 c -0.0686,-0.18551 -0.17889,-0.47164 -0.48789,-0.16264 -0.309,0.30901 0.13011,0.73185 0.13011,0.73185 0,0 0.57084,0.007 0.35778,-0.56921 z"
       id="path4620"
       inkscape:connector-curvature="0"
       sodipodi:nodetypes="sscs" />
    <path
       style="fill:none;stroke:#000000;stroke-width:0.4867951;stroke-linecap:butt;stroke-linejoin:miter;stroke-miterlimit:4;stroke-dasharray:none;stroke-opacity:1"
       d="m 132.35579,140.70514 c 0,0 3.21995,2.29997 4.09393,-0.18399"
       id="path4622"
       inkscape:connector-curvature="0" />
    <path
       style="fill:none;stroke:#000000;stroke-width:0.4867951;stroke-linecap:butt;stroke-linejoin:miter;stroke-miterlimit:4;stroke-dasharray:none;stroke-opacity:1"
       d="m 135.28316,143.41843 c 0,0 2.29996,3.21994 -0.18399,4.09392"
       id="path4622-7"
       inkscape:connector-curvature="0" />
    <path
       style="fill:none;stroke:#000000;stroke-width:0.4867951;stroke-linecap:butt;stroke-linejoin:miter;stroke-miterlimit:4;stroke-dasharray:none;stroke-opacity:1"
       d="m 136.85552,147.77035 c 0,0 -3.21995,2.29996 -4.09393,-0.18399"
       id="path4622-0"
       inkscape:connector-curvature="0" />
    <path
       style="fill:none;stroke:#a20000;stroke-width:0.4867951;stroke-linecap:butt;stroke-linejoin:miter;stroke-miterlimit:4;stroke-dasharray:none;stroke-opacity:1"
       d="m 132.93701,134.31568 c 0,0 -3.95594,0.0916 -3.165,2.60324"
       id="path4622-6"
       inkscape:connector-curvature="0" />
    <path
       style="fill:none;stroke:#a20000;stroke-width:0.4867951;stroke-linecap:butt;stroke-linejoin:miter;stroke-miterlimit:4;stroke-dasharray:none;stroke-opacity:1"
       d="m 125.21077,134.27956 c 0,0 3.92636,-0.49145 3.51358,2.10922"
       id="path4622-6-9"
       inkscape:connector-curvature="0" />
    <path
       style="fill:none;stroke:#8b8b8b;stroke-width:0.4867951;stroke-linecap:butt;stroke-linejoin:miter;stroke-miterlimit:4;stroke-dasharray:none;stroke-opacity:1"
       d="m 129.956,147.64882 c 0,0 3.21994,2.29997 4.09393,-0.18399"
       id="path4622-0-8"
       inkscape:connector-curvature="0" />
    <path
       style="fill:#ffffff;stroke:#000000;stroke-width:0.2;stroke-linecap:butt;stroke-linejoin:miter;stroke-miterlimit:4;stroke-dasharray:none;stroke-opacity:1"
       d="m 127.42075,139.91233 c 0,0 -0.14828,0.62718 0.36749,0.735 1.1359,0.26726 1.73726,0.4009 2.47225,-1e-5 0.73499,-0.4009 0.63476,-1.00226 0.63476,-1.00226 z"
       id="path6222"
       inkscape:connector-curvature="0"
       sodipodi:nodetypes="ccccc" />
    <path
       style="fill:#ffffff;fill-opacity:1;stroke:#000000;stroke-width:0.16092697px;stroke-linecap:butt;stroke-linejoin:miter;stroke-opacity:1"
       d="m 129.89554,138.82349 c 0,0 -0.27989,-2.44157 0.63192,-2.51584 0.9118,-0.0743 1.57897,2.50649 1.57897,2.50649 z"
       id="path4618-1"
       inkscape:connector-curvature="0"
       sodipodi:nodetypes="cccc" />
    <path
       style="fill:#3050cd;fill-opacity:1;stroke:#000000;stroke-width:0.12879786px;stroke-linecap:butt;stroke-linejoin:miter;stroke-opacity:1"
       d="m 130.96049,137.83124 c -0.0686,-0.18551 -0.17889,-0.47164 -0.48789,-0.16264 -0.309,0.30901 0.13011,0.73185 0.13011,0.73185 0,0 0.57084,0.007 0.35778,-0.56921 z"
       id="path4620-7"
       inkscape:connector-curvature="0"
       sodipodi:nodetypes="sscs" />
  </g>
</svg>
