<?xml version="1.0" encoding="UTF-8" standalone="no"?>
<!-- Created with Inkscape (http://www.inkscape.org/) -->

<svg
   xmlns:dc="http://purl.org/dc/elements/1.1/"
   xmlns:cc="http://creativecommons.org/ns#"
   xmlns:rdf="http://www.w3.org/1999/02/22-rdf-syntax-ns#"
   xmlns:svg="http://www.w3.org/2000/svg"
   xmlns="http://www.w3.org/2000/svg"
   xmlns:sodipodi="http://sodipodi.sourceforge.net/DTD/sodipodi-0.dtd"
   xmlns:inkscape="http://www.inkscape.org/namespaces/inkscape"
   width="199.52361mm"
   height="164.29753mm"
   viewBox="0 0 199.52361 164.29753"
   version="1.1"
   id="svg8"
   inkscape:version="0.92.3 (2405546, 2018-03-11)"
   sodipodi:docname="WhereIsBob.svg"
   inkscape:export-filename="D:\1stuff\dev\2021\ld48\assets\concept\where-is-bob-concept.png"
   inkscape:export-xdpi="89.975792"
   inkscape:export-ydpi="89.975792">
  <defs
     id="defs2" />
  <sodipodi:namedview
     id="base"
     pagecolor="#ffffff"
     bordercolor="#666666"
     borderopacity="1.0"
     inkscape:pageopacity="1"
     inkscape:pageshadow="2"
     inkscape:zoom="0.49497475"
     inkscape:cx="396.25247"
     inkscape:cy="256.01122"
     inkscape:document-units="mm"
     inkscape:current-layer="layer1"
     showgrid="false"
     inkscape:window-width="1691"
     inkscape:window-height="1057"
     inkscape:window-x="221"
     inkscape:window-y="-8"
     inkscape:window-maximized="1"
     fit-margin-top="0"
     fit-margin-left="0"
     fit-margin-right="0"
     fit-margin-bottom="0" />
  <metadata
     id="metadata5">
    <rdf:RDF>
      <cc:Work
         rdf:about="">
        <dc:format>image/svg+xml</dc:format>
        <dc:type
           rdf:resource="http://purl.org/dc/dcmitype/StillImage" />
        <dc:title></dc:title>
      </cc:Work>
    </rdf:RDF>
  </metadata>
  <g
     inkscape:label="Layer 1"
     inkscape:groupmode="layer"
     id="layer1"
     transform="translate(-11.961191,-44.702646)">
    <path
       style="fill:none;stroke:#8b8b8b;stroke-width:1;stroke-linecap:butt;stroke-linejoin:miter;stroke-miterlimit:4;stroke-dasharray:none;stroke-opacity:1"
       d="m 204.70427,196.50956 c 0,0 -4.7247,6.61458 0.37797,8.40996"
       id="path4622-0-8"
       inkscape:connector-curvature="0" />
    <path
       style="fill:none;stroke:#8b8b8b;stroke-width:1;stroke-linecap:butt;stroke-linejoin:miter;stroke-miterlimit:4;stroke-dasharray:none;stroke-opacity:1"
       d="m 197.61721,196.79304 c 0,0 -4.7247,6.61458 0.37797,8.40996"
       id="path4622-0-8-1"
       inkscape:connector-curvature="0" />
    <path
       style="fill:#ff0505;fill-opacity:1;stroke:#000000;stroke-width:0.2262511px;stroke-linecap:butt;stroke-linejoin:miter;stroke-opacity:1"
       d="m 195.73765,190.34952 c 0,0 6.08056,-6.04762 10.0882,-4.15774 4.00764,1.88989 7.46251,14.17411 0.55278,12.8512 -6.90973,-1.32292 -11.74653,2.07886 -11.88473,-1.88989 -0.1382,-3.96875 1.24375,-6.80357 1.24375,-6.80357 z"
       id="path4591-2"
       inkscape:connector-curvature="0" />
    <path
       style="fill:#ff0505;fill-opacity:1;stroke:#000000;stroke-width:0.1519352px;stroke-linecap:butt;stroke-linejoin:miter;stroke-opacity:1"
       d="m 192.23306,192.66278 c 0,0 4.0833,-4.06118 6.77456,-2.79206 2.69127,1.26912 5.01133,9.51839 0.37121,8.63001 -4.64011,-0.88838 -7.88819,1.39602 -7.98099,-1.26912 -0.0928,-2.66515 0.83522,-4.56883 0.83522,-4.56883 z"
       id="path4591-4"
       inkscape:connector-curvature="0" />
    <path
       style="fill:none;stroke:#8b8b8b;stroke-width:1;stroke-linecap:butt;stroke-linejoin:miter;stroke-miterlimit:4;stroke-dasharray:none;stroke-opacity:1"
       d="m 188.82927,195.56462 c 0,0 -4.7247,6.61458 0.37797,8.40996"
       id="path4622-0-8-15"
       inkscape:connector-curvature="0" />
    <path
       style="fill:#ff0505;fill-opacity:1;stroke:#000000;stroke-width:0.1519352px;stroke-linecap:butt;stroke-linejoin:miter;stroke-opacity:1"
       d="m 187.33599,192.89476 c 0,0 4.0833,-4.06118 6.77456,-2.79206 2.69127,1.26912 5.01133,9.51839 0.37121,8.63001 -4.64011,-0.88838 -7.88819,1.39602 -7.98099,-1.26912 -0.0928,-2.66515 0.83522,-4.56883 0.83522,-4.56883 z"
       id="path4591"
       inkscape:connector-curvature="0" />
    <path
       style="fill:#d7d7d7;fill-opacity:1;stroke:#000000;stroke-width:0.26458332px;stroke-linecap:butt;stroke-linejoin:miter;stroke-opacity:1"
       d="m 74.728578,129.607 c 12.99431,-11.9816 -7.469667,7.5396 -12.362507,22.62811 -4.53227,13.97659 -4.535715,43.84524 -4.535715,43.84524 l 65.389884,1.88988 c -2.61465,-44.37779 5.58297,-86.16891 6.80357,-124.354161 C 130.77976,57.363093 96.383922,40.354166 65.011903,46.401785 33.639879,52.449403 12.095238,44.889879 12.095238,44.889879 L 12.049378,152.771 c 0,0 45.675843,6.99194 58.670154,-4.98967 z"
       id="path4520"
       inkscape:connector-curvature="0"
       sodipodi:nodetypes="cscccscczc" />
    <g
       id="g850"
       transform="translate(-2.9399648,1.8708867)">
      <path
         sodipodi:nodetypes="ccccsc"
         inkscape:connector-curvature="0"
         id="path4539"
         d="m 119.0625,76.545385 c 0,0 2.64583,3.496279 3.40178,11.433779 0.75596,7.9375 9.00512,14.145796 13.22917,15.497016 4.22404,1.35123 3.41481,0.004 6.04762,-1.5119 -4.64324,-3.499814 -5.66964,2.64584 -10.58333,-7.181543 C 126.24405,84.955355 120.5744,72.104164 120.5744,72.104164"
         style="fill:#9f9f9f;fill-opacity:1;stroke:#000000;stroke-width:0.26458332px;stroke-linecap:butt;stroke-linejoin:miter;stroke-opacity:1" />
      <path
         inkscape:connector-curvature="0"
         id="path4541"
         d="m 128.70089,90.058035 c 2.27266,0.582856 4.22012,-0.118856 6.23661,-0.566965"
         style="fill:none;stroke:#000000;stroke-width:0.26458332px;stroke-linecap:butt;stroke-linejoin:miter;stroke-opacity:1" />
      <path
         inkscape:connector-curvature="0"
         id="path4543"
         d="m 131.16252,95.144687 c 1.65867,0.146709 3.45462,-0.190508 4.94448,-0.935443"
         style="fill:none;stroke:#000000;stroke-width:0.26458332px;stroke-linecap:butt;stroke-linejoin:miter;stroke-opacity:1" />
      <path
         inkscape:connector-curvature="0"
         id="path4545"
         d="m 135.03793,100.08917 c 1.2088,0.50634 2.48356,0.0902 3.60814,-0.534533"
         style="fill:none;stroke:#000000;stroke-width:0.26458332px;stroke-linecap:butt;stroke-linejoin:miter;stroke-opacity:1" />
      <path
         inkscape:connector-curvature="0"
         id="path4549"
         d="m 131.49661,101.49234 c 0.22788,0.66556 0.4009,1.21708 0.4009,1.9377"
         style="fill:none;stroke:#000000;stroke-width:0.26458332px;stroke-linecap:butt;stroke-linejoin:miter;stroke-opacity:1" />
      <path
         inkscape:connector-curvature="0"
         id="path4551"
         d="m 129.82617,99.888721 c -0.77022,0.602429 -0.7118,1.438519 -0.80181,2.338609"
         style="fill:none;stroke:#000000;stroke-width:0.26458332px;stroke-linecap:butt;stroke-linejoin:miter;stroke-opacity:1" />
      <path
         inkscape:connector-curvature="0"
         id="path4553"
         d="m 126.4853,96.681487 c -0.84298,0.998162 -1.11561,2.160868 -1.00226,3.407683"
         style="fill:none;stroke:#000000;stroke-width:0.26458332px;stroke-linecap:butt;stroke-linejoin:miter;stroke-opacity:1" />
    </g>
    <path
       style="fill:#984700;fill-opacity:1;stroke:#000000;stroke-width:0.30029991px;stroke-linecap:butt;stroke-linejoin:miter;stroke-opacity:1"
       d="m 147.76595,206.77029 c 15.29985,-2.55014 26.84692,-20.71984 15.01118,-21.51676 -11.83574,-0.79691 -60.91073,-0.9563 -60.91073,-0.9563 0,0 -52.827805,10.67869 -21.939417,15.61957 30.888387,4.94089 52.539117,9.40362 67.838967,6.85349 z"
       id="path4557"
       inkscape:connector-curvature="0"
       sodipodi:nodetypes="zscsz" />
    <path
       style="fill:#984700;fill-opacity:1;stroke:#000000;stroke-width:0.19846898px;stroke-linecap:butt;stroke-linejoin:miter;stroke-opacity:1"
       d="m 143.98107,196.08333 c 7.69888,-6.51548 14.91659,-16.28869 8.34045,-16.91518 -6.57612,-0.62649 -33.84298,-0.75179 -33.84298,-0.75179 0,0 -29.351999,8.39494 -12.18989,12.27917 17.16208,3.88423 37.69242,5.3878 37.69242,5.3878 z"
       id="path4557-2"
       inkscape:connector-curvature="0" />
    <path
       style="fill:#984700;fill-opacity:1;stroke:#000000;stroke-width:0.14225674px;stroke-linecap:butt;stroke-linejoin:miter;stroke-opacity:1"
       d="m 136.89962,185.05392 c 4.83407,-5.33118 9.366,-13.32794 5.2369,-13.84055 -4.12908,-0.51262 -21.24967,-0.61514 -21.24967,-0.61514 0,0 -18.42985,6.869 -7.65392,10.04722 10.7759,3.1782 23.66669,4.40847 23.66669,4.40847 z"
       id="path4557-2-0"
       inkscape:connector-curvature="0" />
    <path
       style="fill:#d7d7d7;fill-opacity:1;stroke:#000000;stroke-width:0.26458332px;stroke-linecap:butt;stroke-linejoin:miter;stroke-opacity:1"
       d="m 65.762612,96.699757 c 0,0 -12.116093,44.631733 -17.008932,59.720243 -4.53227,13.97658 -4.152491,46.08595 -4.152491,46.08595 L 107.34,204.04499 c -2.61465,-44.37779 -1.22061,-36.65402 -1e-5,-74.83928"
       id="path4520-9"
       inkscape:connector-curvature="0"
       sodipodi:nodetypes="csccc" />
    <path
       style="fill:#ff0505;fill-opacity:1;stroke:#000000;stroke-width:0.26458332px;stroke-linecap:butt;stroke-linejoin:miter;stroke-opacity:1"
       d="m 176.89286,193.62351 10.01636,-8.31548 c 0,0 6.80358,7.37054 2.07887,11.71726 -4.7247,4.34673 -12.09523,-3.40178 -12.09523,-3.40178 z"
       id="path4589"
       inkscape:connector-curvature="0" />
    <path
       style="fill:#ffffff;fill-opacity:1;stroke:#000000;stroke-width:0.31202936px;stroke-linecap:butt;stroke-linejoin:miter;stroke-opacity:1"
       d="m 180.19821,199.43072 c 0,0 3.90528,0.79802 4.9224,-0.90568 1.01712,-1.70365 0.19302,-4.01248 0.19302,-4.01248 l -6.581,0.80257"
       id="path4616"
       inkscape:connector-curvature="0"
       sodipodi:nodetypes="czcc" />
    <path
       style="fill:#ffffff;fill-opacity:1;stroke:#000000;stroke-width:0.33058462px;stroke-linecap:butt;stroke-linejoin:miter;stroke-opacity:1"
       d="m 181.09968,191.21902 c 0,0 -0.57497,-5.01561 1.29812,-5.16817 1.87307,-0.15257 3.24362,5.14896 3.24362,5.14896 z"
       id="path4618"
       inkscape:connector-curvature="0"
       sodipodi:nodetypes="cccc" />
    <path
       style="fill:#3050cd;fill-opacity:1;stroke:#000000;stroke-width:0.26458332px;stroke-linecap:butt;stroke-linejoin:miter;stroke-opacity:1"
       d="m 181.77694,188.82367 c -0.14083,-0.38107 -0.3675,-0.96885 -1.00226,-0.33409 -0.63477,0.63477 0.26727,1.50339 0.26727,1.50339 0,0 1.17266,0.015 0.73499,-1.1693 z"
       id="path4620"
       inkscape:connector-curvature="0"
       sodipodi:nodetypes="sscs" />
    <path
       style="fill:none;stroke:#000000;stroke-width:1;stroke-linecap:butt;stroke-linejoin:miter;stroke-miterlimit:4;stroke-dasharray:none;stroke-opacity:1"
       d="m 193.42931,196.55283 c 0,0 4.7247,6.61458 -0.37797,8.40996"
       id="path4622"
       inkscape:connector-curvature="0" />
    <path
       style="fill:none;stroke:#000000;stroke-width:1;stroke-linecap:butt;stroke-linejoin:miter;stroke-miterlimit:4;stroke-dasharray:none;stroke-opacity:1"
       d="m 200.95868,196.98203 c 0,0 4.7247,6.61458 -0.37797,8.40996"
       id="path4622-7"
       inkscape:connector-curvature="0" />
    <path
       style="fill:none;stroke:#000000;stroke-width:1;stroke-linecap:butt;stroke-linejoin:miter;stroke-miterlimit:4;stroke-dasharray:none;stroke-opacity:1"
       d="m 208.99068,197.17101 c 0,0 4.7247,6.61458 -0.37797,8.40996"
       id="path4622-0"
       inkscape:connector-curvature="0" />
    <path
       style="fill:none;stroke:#a20000;stroke-width:1;stroke-linecap:butt;stroke-linejoin:miter;stroke-miterlimit:4;stroke-dasharray:none;stroke-opacity:1"
       d="m 182.6793,179.89349 c 0,0 8.1265,0.1882 6.50171,5.34772"
       id="path4622-6"
       inkscape:connector-curvature="0" />
    <path
       style="fill:none;stroke:#a20000;stroke-width:1;stroke-linecap:butt;stroke-linejoin:miter;stroke-miterlimit:4;stroke-dasharray:none;stroke-opacity:1"
       d="m 180.04546,182.59879 c 0,0 8.06574,-1.00956 7.21779,4.33287"
       id="path4622-6-9"
       inkscape:connector-curvature="0" />
    <path
       style="fill:#984700;fill-opacity:1;stroke:#000000;stroke-width:0.10107112px;stroke-linecap:butt;stroke-linejoin:miter;stroke-opacity:1"
       d="m 132.09234,177.47244 c 2.44018,-5.33118 4.72784,-13.32794 2.64352,-13.84055 -2.0843,-0.51262 -10.72656,-0.61514 -10.72656,-0.61514 0,0 -9.30315,6.869 -3.8636,10.04722 5.43954,3.1782 11.94664,4.40847 11.94664,4.40847 z"
       id="path4557-2-0-1"
       inkscape:connector-curvature="0" />
  </g>
</svg>
